<svg xmlns="http://www.w3.org/2000/svg" viewBox="0 0 250 147.2"><title>berkeley-haas-wordmark</title><path d="M58.95,101.29a9.26,9.26,0,0,1,3.67-7.12A12.38,12.38,0,0,1,70,92c7.34,0,10.13,3.72,10.13,9V120a8.83,8.83,0,0,0,.38,2.41h-6.9c-0.16-.77-0.27-1.7-0.49-2.9a11.37,11.37,0,0,1-8.21,3.45c-4.16,0-6.84-2.3-6.84-7.12,0-6.9,6.57-9.85,15.16-12.43v-2.19a3.22,3.22,0,0,0-3.56-3.56,3.71,3.71,0,0,0-3.83,3.67h-6.9Zm14.29,6.51c-4.11,1.42-8.27,3.72-8.27,6.84A2.86,2.86,0,0,0,68,117.77c2.08,0,3.56-1.1,5.2-2.74v-7.23Z" style="fill:#14284b"/><path d="M85.14,101.29a9.26,9.26,0,0,1,3.67-7.12A12.38,12.38,0,0,1,96.2,92c7.34,0,10.13,3.72,10.13,9V120a8.83,8.83,0,0,0,.38,2.41h-6.9c-0.16-.77-0.27-1.7-0.49-2.9a11.37,11.37,0,0,1-8.21,3.45c-4.16,0-6.84-2.3-6.84-7.12,0-6.9,6.57-9.85,15.16-12.43v-2.19a3.22,3.22,0,0,0-3.56-3.56A3.71,3.71,0,0,0,92,101.29h-6.9Zm14.29,6.51c-4.11,1.42-8.27,3.72-8.27,6.84a2.86,2.86,0,0,0,3.07,3.12c2.08,0,3.56-1.1,5.2-2.74v-7.23Z" style="fill:#14284b"/><path d="M124.65,101.68c-0.93-2.74-2.68-4.05-4.76-4.05a2.68,2.68,0,0,0-2.79,2.68c0,4.6,13.47,4.71,13.47,13.58,0,5.91-4.16,9-9.91,9-4.16,0-7.88-1-11.22-8.49l6.19-1.7c0.6,2.79,2.3,4.6,5,4.6,2.08,0,3.34-1,3.34-2.63,0-5.69-13.47-4.32-13.47-14.34,0-5.64,4.54-8.32,9.42-8.32,5.15,0,8.7,3,10.4,7.44Z" style="fill:#14284b"/><polygon points="46.19 78.25 46.19 96.26 33.77 96.26 33.77 78.25 26.16 78.25 26.16 122.34 33.77 122.34 33.77 102.78 46.19 102.78 46.19 122.34 53.79 122.34 53.79 78.25 46.19 78.25" style="fill:#14284b"/><path d="M38.22,69.31c-3.05,0-6.1-.73-9.3-0.73s-4.65.29-7,.29c-0.73,0-1.23-.07-1.23-0.8s0.44-.87,2-0.87c3.27,0,3.41-.14,3.41-1.23V32.56c0-5.74-1.16-6.39-3.2-6.39-3.27,0-3.56-.07-3.56-0.94,0-.51.22-0.58,1.45-0.58,2.25,0,4.5.07,7,.07,1.53,0,5-.44,11.55-0.44,9.44,0,13.51,4.87,13.51,10s-3.12,7.7-5.45,9.3a25,25,0,0,0-3,2c0,0.15,1.38.51,2.83,1.23,3.41,1.74,7.7,4.21,7.7,10.53,0,8.13-6.75,12-16.85,12M37.28,26c-4.79,0-5,.65-5,2.11V43.89c0,1.16.94,1,2.69,1a58.52,58.52,0,0,1,7.48.44c2.11-1.6,4.5-3,4.5-8.72C46.94,33,43.89,26,37.28,26m-2.4,20.26c-2,0-2.62.29-2.62,1.89v13c0,0.66.22,4.72,0.87,5.45S36.26,68,38.59,68c5.52,0,9.59-3.78,9.59-10.1,0-6.54-5.37-11.62-13.29-11.62" style="fill:#fdb614"/><path d="M78.23,51.28a98.11,98.11,0,0,1-15.16,2.21c-1,.06-1.2.38-1.2,1.83,0,8.72,6.76,11.06,11.56,11.06a16.89,16.89,0,0,0,6.82-1.52,0.59,0.59,0,0,1,.51.51c0,0.31-5.37,4.3-10.49,4.3S57.38,67.13,57.38,56.58c0-8.91,6-14.22,11.75-14.22,3.29,0,7.33,2.09,9.6,4.74a9.63,9.63,0,0,1,2.09,3.28c0,0.25-.88.51-2.59,0.88M68.5,43.7c-4.8,0-6.32,7.2-6.32,8.09,0,0.32,0,.38.76,0.38,3.29,0,6.7-.82,11.43-1.58,0.7-.13.76-0.25,0.76-0.63,0-1.58-3.73-6.25-6.63-6.25" style="fill:#fdb614"/><path d="M101.35,49.57c-0.88,0-1.64-2.59-4.8-2.59-3.66,0-5.05,1.52-5.05,4.17v13c0,3.1.19,3.1,4.86,3.1,1.64,0,1.7.19,1.7,0.76s-0.06.63-1.7,0.63c-0.89,0-5.12-.32-7.14-0.32s-4.3.32-5.18,0.32c-1.45,0-1.58,0-1.58-.63s0.06-.76,1.58-0.76c2.59,0,2.78-.06,2.78-0.95V49c0-4.3.13-4.42-3.41-4.42-1.14,0-1.14.06-1.14-.63s-0.06-.95,1-0.95c2.15,0,3.35.13,4.61,0.13,1,0,2.21-.32,3.22-0.32a0.57,0.57,0,0,1,.51.7c0,0.32-.13,1.71-0.13,1.9,0,0.57.06,1,.32,1,0.95,0,3.92-3.29,6.89-3.29,1.14,0,4,1.39,4,3,0,0.63-1,3.41-1.39,3.41" style="fill:#fdb614"/><path d="M131.23,68.9c-0.76,0-1.58-.06-2.15-0.06-0.76,0-2.65.06-3.54,0.06-1.14,0-1.71-1.58-4.36-4.61s-5.31-7-5.69-7a11.65,11.65,0,0,0-2.21,1.33c-1,.63-1.89,1.08-1.89,1.64v4c0,3-.13,3,3.79,3,1.45,0,1.71.32,1.71,0.82s-0.32.63-1.71,0.63c-0.95,0-3.85-.13-5.87-0.13s-4.49.13-5.37,0.13c-1.45,0-1.83-.06-1.83-0.63s0.32-.82,1.83-0.82c2.15,0,2.72,0,2.72-.95,0-1.83.19-20.53,0.19-33.86,0-4.48-.51-5.05-2.21-5.05-2.59,0-2.84-.19-2.84-0.63,0-.63.13-0.88,0.82-0.88a38.71,38.71,0,0,0,8.84-1.39c0.32,0,.44.19,0.44,0.57,0,0.82-.13,3.48-0.13,5.5,0,9.6-.38,16.68-0.38,27,0,0.25.06,0.44,0.25,0.44,1.58,0,8.15-5.81,10.17-7.71,2.46-2.34,3-3.41,3-4.74,0-1-.19-1.14-3-1.14-0.95,0-1.26-.13-1.26-0.7s0.32-.63,1.14-0.63c0.63,0,1.83.19,2.59,0.19s4.49-.19,5.24-0.19c0.51,0,.76.06,0.76,0.25,0,0.57-2.15,3.29-4.11,5.18-3.16,3.1-7.08,5.87-7.08,6.32s1.14,1.77,5.56,7.08c2.15,2.59,4.17,5.68,6.32,5.68,1.52,0,2,.32,2,0.82s-0.44.57-1.83,0.57" style="fill:#fdb614"/><path d="M151.89,51.28a98.12,98.12,0,0,1-15.16,2.21c-1,.06-1.2.38-1.2,1.83,0,8.72,6.76,11.06,11.56,11.06a16.9,16.9,0,0,0,6.82-1.52,0.59,0.59,0,0,1,.5.51c0,0.31-5.37,4.3-10.49,4.3S131,67.13,131,56.58c0-8.91,6-14.22,11.75-14.22,3.29,0,7.33,2.09,9.6,4.74a9.64,9.64,0,0,1,2.08,3.28c0,0.25-.88.51-2.59,0.88m-9.73-7.58c-4.8,0-6.32,7.2-6.32,8.09,0,0.32,0,.38.76,0.38,3.28,0,6.7-.82,11.43-1.58,0.69-.13.76-0.25,0.76-0.63,0-1.58-3.73-6.25-6.63-6.25" style="fill:#fdb614"/><path d="M165.8,68.65c-0.95,0-2.34-.13-3.48-0.13-2.15,0-5.5.13-6.38,0.13-1.45,0-1.58-.13-1.58-0.63s0.06-.82,1.58-0.82c2.59,0,3.66.06,3.66-1.07V31.31c0-4-.38-4-3.22-4-1.14,0-1.77-.13-1.77-0.82s0.51-.69,1.58-0.76a33.55,33.55,0,0,0,7.71-1.39c0.32,0,.63.32,0.63,1s-0.31,3-.31,4.93c0,24.07-.32,29.06-0.32,30.89,0,5.24.44,5.94,1.58,5.94,3.16,0,3,.38,3,0.89s-0.44.63-2.72,0.63" style="fill:#fdb614"/><path d="M188.33,51.28a98.1,98.1,0,0,1-15.16,2.21c-1,.06-1.2.38-1.2,1.83,0,8.72,6.76,11.06,11.56,11.06a16.88,16.88,0,0,0,6.82-1.52,0.59,0.59,0,0,1,.51.51c0,0.31-5.37,4.3-10.49,4.3s-12.89-2.53-12.89-13.08c0-8.91,6-14.22,11.75-14.22,3.29,0,7.33,2.09,9.6,4.74a9.63,9.63,0,0,1,2.08,3.28c0,0.25-.89.51-2.59,0.88M178.6,43.7c-4.8,0-6.32,7.2-6.32,8.09,0,0.32,0,.38.76,0.38,3.29,0,6.7-.82,11.44-1.58,0.69-.13.76-0.25,0.76-0.63,0-1.58-3.73-6.25-6.64-6.25" style="fill:#fdb614"/><path d="M216.95,44.52c-1.39,0-4.17,7.58-9.16,19.71-4,9.66-6.82,14.78-8.84,19-0.69,1.39-1.45,1.45-2.84,1.64-1.89.25-2.34,0.76-3.73,0.76-1.07,0-1.71-.32-1.71-0.63s3-.76,5.12-3.47,7.71-10.3,7.71-12.19c0-.7-5.05-12.38-8.53-20.6-1.58-3.79-2-4.11-3.16-4.11s-1.33-.06-1.33-0.63,0.19-.89,1.33-0.89c1.77,0,2.21.13,3.73,0.13,1.77,0,4-.19,6-0.19,1.33,0,1.58.25,1.58,0.95s-0.25.63-1.58,0.63c-1.52,0-1.89.38-1.89,1.83,0,1.83,1.64,4,5.43,13.77a5,5,0,0,0,1.52,2.4c0.44,0,.82-0.88,1.83-3.85,1.52-4.55,3.79-11.12,3.79-12,0-1.89,0-2.27-2.15-2.27-2,0-2.21,0-2.21-.63,0-.82.19-0.82,1.33-0.82,1.71,0,2.84.13,4.55,0.13,0.95,0,2.65-.25,3.54-0.25s1.33,0.06,1.33.76-0.88.88-1.64,0.88" style="fill:#fdb614"/></svg>