<svg id="Layer_1" data-name="Layer 1" xmlns="http://www.w3.org/2000/svg" viewBox="0 0 250 250"><defs><style>.cls-1{fill:#fff;stroke:#333;stroke-miterlimit:10;stroke-width:0.75px;}.cls-2{fill:#14284b;}.cls-3{fill:#fdb614;}</style></defs><title>berkeley-haas-wordmark</title><rect class="cls-1" y="0.78" width="250" height="249.22"/><path class="cls-2" d="M58.95,152.69a9.26,9.26,0,0,1,3.67-7.12A12.38,12.38,0,0,1,70,143.44c7.34,0,10.13,3.72,10.13,9v18.89a8.83,8.83,0,0,0,.38,2.41h-6.9c-.16-.77-.27-1.7-.49-2.9a11.37,11.37,0,0,1-8.21,3.45c-4.16,0-6.84-2.3-6.84-7.12,0-6.9,6.57-9.85,15.16-12.43v-2.19A3.22,3.22,0,0,0,69.68,149a3.71,3.71,0,0,0-3.83,3.67Zm14.29,6.51c-4.11,1.42-8.27,3.72-8.27,6.84A2.86,2.86,0,0,0,68,169.17c2.08,0,3.56-1.1,5.2-2.74Z"/><path class="cls-2" d="M85.14,152.69a9.26,9.26,0,0,1,3.67-7.12,12.38,12.38,0,0,1,7.39-2.13c7.34,0,10.13,3.72,10.13,9v18.89a8.83,8.83,0,0,0,.38,2.41h-6.9c-.16-.77-.27-1.7-.49-2.9a11.37,11.37,0,0,1-8.21,3.45c-4.16,0-6.84-2.3-6.84-7.12,0-6.9,6.57-9.85,15.16-12.43v-2.19A3.22,3.22,0,0,0,95.87,149,3.71,3.71,0,0,0,92,152.69Zm14.29,6.51c-4.11,1.42-8.27,3.72-8.27,6.84a2.86,2.86,0,0,0,3.07,3.12c2.08,0,3.56-1.1,5.2-2.74Z"/><path class="cls-2" d="M124.65,153.08c-.93-2.74-2.68-4.05-4.76-4.05a2.68,2.68,0,0,0-2.79,2.68c0,4.6,13.47,4.71,13.47,13.58,0,5.91-4.16,9-9.91,9-4.16,0-7.88-1-11.22-8.49l6.19-1.7c.6,2.79,2.3,4.6,5,4.6,2.08,0,3.34-1,3.34-2.63,0-5.69-13.47-4.32-13.47-14.34,0-5.64,4.54-8.32,9.42-8.32,5.15,0,8.7,3,10.4,7.44Z"/><polygon class="cls-2" points="46.19 129.65 46.19 147.66 33.77 147.66 33.77 129.65 26.16 129.65 26.16 173.74 33.77 173.74 33.77 154.19 46.19 154.19 46.19 173.74 53.79 173.74 53.79 129.65 46.19 129.65"/><path class="cls-3" d="M38.22,120.71c-3.05,0-6.1-.73-9.3-.73s-4.65.29-7,.29c-.73,0-1.23-.07-1.23-.8s.44-.87,2-.87c3.27,0,3.41-.14,3.41-1.23V84c0-5.74-1.16-6.39-3.2-6.39-3.27,0-3.56-.07-3.56-.94,0-.51.22-.58,1.45-.58,2.25,0,4.5.07,7,.07,1.53,0,5-.44,11.55-.44,9.44,0,13.51,4.87,13.51,10s-3.12,7.7-5.45,9.3a25,25,0,0,0-3,2c0,.15,1.38.51,2.83,1.23,3.41,1.74,7.7,4.21,7.7,10.53,0,8.13-6.75,12-16.85,12m-.94-43.29c-4.79,0-5,.65-5,2.11V95.29c0,1.16.94,1,2.69,1a58.52,58.52,0,0,1,7.48.44c2.11-1.6,4.5-3,4.5-8.72,0-3.63-3.05-10.6-9.66-10.6m-2.4,20.26c-2,0-2.62.29-2.62,1.89v13c0,.66.22,4.72.87,5.45s3.12,1.38,5.45,1.38c5.52,0,9.59-3.78,9.59-10.1,0-6.54-5.37-11.62-13.29-11.62"/><path class="cls-3" d="M78.23,102.68a98.11,98.11,0,0,1-15.16,2.21c-1,.06-1.2.38-1.2,1.83,0,8.72,6.76,11.06,11.56,11.06a16.89,16.89,0,0,0,6.82-1.52c.32,0,.51.38.51.51,0,.31-5.37,4.3-10.49,4.3S57.38,118.53,57.38,108c0-8.91,6-14.22,11.75-14.22,3.29,0,7.33,2.09,9.6,4.74a9.63,9.63,0,0,1,2.09,3.28c0,.25-.88.51-2.59.88M68.5,95.1c-4.8,0-6.32,7.2-6.32,8.09,0,.32,0,.38.76.38,3.29,0,6.7-.82,11.43-1.58.7-.13.76-.25.76-.63,0-1.58-3.73-6.25-6.63-6.25"/><path class="cls-3" d="M101.35,101c-.88,0-1.64-2.59-4.8-2.59-3.66,0-5.05,1.52-5.05,4.17v13c0,3.1.19,3.1,4.86,3.1,1.64,0,1.7.19,1.7.76s-.06.63-1.7.63c-.89,0-5.12-.32-7.14-.32s-4.3.32-5.18.32c-1.45,0-1.58,0-1.58-.63s.06-.76,1.58-.76c2.59,0,2.78-.06,2.78-.95V100.4c0-4.3.13-4.42-3.41-4.42-1.14,0-1.14.06-1.14-.63s-.06-.95,1-.95c2.15,0,3.35.13,4.61.13,1,0,2.21-.32,3.22-.32.25,0,.51.19.51.7,0,.32-.13,1.71-.13,1.9,0,.57.06,1,.32,1,.95,0,3.92-3.29,6.89-3.29,1.14,0,4,1.39,4,3,0,.63-1,3.41-1.39,3.41"/><path class="cls-3" d="M131.23,120.3c-.76,0-1.58-.06-2.15-.06-.76,0-2.65.06-3.54.06-1.14,0-1.71-1.58-4.36-4.61s-5.31-7-5.69-7a11.65,11.65,0,0,0-2.21,1.33c-1,.63-1.89,1.08-1.89,1.64v4c0,3-.13,3,3.79,3,1.45,0,1.71.32,1.71.82s-.32.63-1.71.63c-.95,0-3.85-.13-5.87-.13s-4.49.13-5.37.13c-1.45,0-1.83-.06-1.83-.63s.32-.82,1.83-.82c2.15,0,2.72,0,2.72-.95,0-1.83.19-20.53.19-33.86,0-4.48-.51-5.05-2.21-5.05-2.59,0-2.84-.19-2.84-.63,0-.63.13-.88.82-.88a38.71,38.71,0,0,0,8.84-1.39c.32,0,.44.19.44.57,0,.82-.13,3.48-.13,5.5,0,9.6-.38,16.68-.38,27,0,.25.06.44.25.44,1.58,0,8.15-5.81,10.17-7.71,2.46-2.34,3-3.41,3-4.74,0-1-.19-1.14-3-1.14-.95,0-1.26-.13-1.26-.7s.32-.63,1.14-.63c.63,0,1.83.19,2.59.19s4.49-.19,5.24-.19c.51,0,.76.06.76.25,0,.57-2.15,3.29-4.11,5.18-3.16,3.1-7.08,5.87-7.08,6.32s1.14,1.77,5.56,7.08c2.15,2.59,4.17,5.68,6.32,5.68,1.52,0,2,.32,2,.82s-.44.57-1.83.57"/><path class="cls-3" d="M151.89,102.68a98.12,98.12,0,0,1-15.16,2.21c-1,.06-1.2.38-1.2,1.83,0,8.72,6.76,11.06,11.56,11.06a16.9,16.9,0,0,0,6.82-1.52c.32,0,.5.38.5.51,0,.31-5.37,4.3-10.49,4.3S131,118.53,131,108c0-8.91,6-14.22,11.75-14.22,3.29,0,7.33,2.09,9.6,4.74a9.64,9.64,0,0,1,2.08,3.28c0,.25-.88.51-2.59.88m-9.73-7.58c-4.8,0-6.32,7.2-6.32,8.09,0,.32,0,.38.76.38,3.28,0,6.7-.82,11.43-1.58.69-.13.76-.25.76-.63,0-1.58-3.73-6.25-6.63-6.25"/><path class="cls-3" d="M165.8,120.05c-.95,0-2.34-.13-3.48-.13-2.15,0-5.5.13-6.38.13-1.45,0-1.58-.13-1.58-.63s.06-.82,1.58-.82c2.59,0,3.66.06,3.66-1.07V82.71c0-4-.38-4-3.22-4-1.14,0-1.77-.13-1.77-.82s.51-.69,1.58-.76a33.55,33.55,0,0,0,7.71-1.39c.32,0,.63.32.63,1s-.31,3-.31,4.93c0,24.07-.32,29.06-.32,30.89,0,5.24.44,5.94,1.58,5.94,3.16,0,3,.38,3,.89s-.44.63-2.72.63"/><path class="cls-3" d="M188.33,102.68a98.1,98.1,0,0,1-15.16,2.21c-1,.06-1.2.38-1.2,1.83,0,8.72,6.76,11.06,11.56,11.06a16.88,16.88,0,0,0,6.82-1.52c.32,0,.51.38.51.51,0,.31-5.37,4.3-10.49,4.3s-12.89-2.53-12.89-13.08c0-8.91,6-14.22,11.75-14.22,3.29,0,7.33,2.09,9.6,4.74a9.63,9.63,0,0,1,2.08,3.28c0,.25-.89.51-2.59.88M178.6,95.1c-4.8,0-6.32,7.2-6.32,8.09,0,.32,0,.38.76.38,3.29,0,6.7-.82,11.44-1.58.69-.13.76-.25.76-.63,0-1.58-3.73-6.25-6.64-6.25"/><path class="cls-3" d="M216.95,95.92c-1.39,0-4.17,7.58-9.16,19.71-4,9.66-6.82,14.78-8.84,19-.69,1.39-1.45,1.45-2.84,1.64-1.89.25-2.34.76-3.73.76-1.07,0-1.71-.32-1.71-.63s3-.76,5.12-3.47,7.71-10.3,7.71-12.19c0-.7-5.05-12.38-8.53-20.6-1.58-3.79-2-4.11-3.16-4.11s-1.33-.06-1.33-.63.19-.89,1.33-.89c1.77,0,2.21.13,3.73.13,1.77,0,4-.19,6-.19,1.33,0,1.58.25,1.58.95s-.25.63-1.58.63c-1.52,0-1.89.38-1.89,1.83,0,1.83,1.64,4,5.43,13.77.51,1.33,1.26,2.4,1.52,2.4.44,0,.82-.88,1.83-3.85,1.52-4.55,3.79-11.12,3.79-12,0-1.89,0-2.27-2.15-2.27-2,0-2.21,0-2.21-.63,0-.82.19-.82,1.33-.82,1.71,0,2.84.13,4.55.13.95,0,2.65-.25,3.54-.25s1.33.06,1.33.76-.88.88-1.64.88"/></svg>